<svg width="41" height="41" viewBox="0 0 41 41" fill="none" xmlns="http://www.w3.org/2000/svg">
<path d="M11.1794 34.1366H2.98971C2.43742 34.1366 1.98971 34.5843 1.98971 35.1366V40C1.98971 40.5523 2.43742 41 2.98971 41H11.1794C11.7317 41 12.1794 40.5523 12.1794 40V35.1366C12.1794 34.5843 11.7317 34.1366 11.1794 34.1366Z" fill="white"/>
<path d="M0 29.2232V13.3372C0 12.4693 1.02993 12.0134 1.6724 12.597L25.0562 33.839C25.2649 34.0285 25.3838 34.2973 25.3838 34.5792V37.7122C25.3838 38.2645 24.9361 38.7122 24.3838 38.7122H16.9779C16.4257 38.7122 15.9779 38.2645 15.9779 37.7122V31.2232C15.9779 30.6709 15.5302 30.2232 14.9779 30.2232H1C0.447715 30.2232 0 29.7755 0 29.2232Z" fill="white"/>
<path d="M38.1309 41H30.2426C29.6904 41 29.2426 40.5523 29.2426 40V32.4192C29.2426 32.133 29.12 31.8605 28.9057 31.6707L2.32661 8.12517C2.11236 7.93538 1.98971 7.66287 1.98971 7.37664V1C1.98971 0.447715 2.43742 0 2.98971 0H10.7574C11.3096 0 11.7574 0.447714 11.7574 0.999999V8.51699C11.7574 8.80528 11.8818 9.07954 12.0987 9.26943L38.7895 32.6337C39.0065 32.8235 39.1309 33.0978 39.1309 33.3861V40C39.1309 40.5523 38.6832 41 38.1309 41Z" fill="white"/>
<path d="M16.4956 2.22761H23.8412C24.3935 2.22761 24.8412 2.67532 24.8412 3.22761V9.59618C24.8412 10.1485 25.2889 10.5962 25.8412 10.5962H40C40.5523 10.5962 41 11.0439 41 11.5962V27.2511C41 28.1079 39.9928 28.568 39.3452 28.0069L15.8408 7.64415C15.6216 7.45421 15.4956 7.17842 15.4956 6.88834V3.22761C15.4956 2.67532 15.9433 2.22761 16.4956 2.22761Z" fill="white"/>
<path d="M28.7603 5.86344V1C28.7603 0.447715 29.208 0 29.7603 0H38.1309C38.6832 0 39.1309 0.447716 39.1309 1V5.86344C39.1309 6.41572 38.6832 6.86344 38.1309 6.86344H29.7603C29.208 6.86344 28.7603 6.41572 28.7603 5.86344Z" fill="white"/>
</svg>
